<svg enable-background="new 0 0 2272 1872" viewBox="0 0 2272 1872" xmlns="http://www.w3.org/2000/svg"><path d="m0 0h2272v1872h-2272z" fill="#dce7fd"/><path d="m2157.5 1515.2c2.5-75.4-34.3-147.8-32.8-223.2 1-53.4 21.1-104.4 31.1-156.9 23.3-122.4-11.9-254.7-93-349.3-85.8-100.2-218-158.9-282.7-273.8-50.5-89.5-53.5-203.3-118.7-282.7-70.7-86-196.5-106.6-306.3-87.8-109.7 18.9-210.9 69.9-316.8 104.4-79.5 25.9-161.9 42.4-245.2 49.3-110.7 9.1-236.2 6.5-313.5 86.3-64.5 66.5-72 167.8-106.7 253.6-70 173.5-253.9 287.7-301.9 468.5-29.3 110.3-2.2 228.5 42.7 333.4 45 104.9 107.3 201.7 153.1 306.3 18 41.1 33.6 84.4 37 128.8h1697.7c39-60.6 72.3-126.2 103.1-190.2 25.3-53 50.9-108 52.9-166.7z" fill="#fff"/><path d="m1492.3 279.7h-703.1c-22.7 0-41.2 18.4-41.2 41.2v1015.7c0 22.7 18.4 41.2 41.2 41.2h703.1c22.7 0 41.2-18.4 41.2-41.2v-1015.7c0-22.8-18.5-41.2-41.2-41.2z" fill="#ca4859"/><path d="m1492.3 257.8h-703.1c-22.7 0-41.2 18.4-41.2 41.2v1015.7c0 22.7 18.4 41.2 41.2 41.2h703.1c22.7 0 41.2-18.4 41.2-41.2v-1015.8c0-22.7-18.5-41.1-41.2-41.1z" fill="#892f3e"/><path d="m1499.2 249.8h-703c-22.7 0-41.2 18.4-41.2 41.2v1015.7c0 22.7 18.4 41.2 41.2 41.2h703.1c22.7 0 41.2-18.4 41.2-41.2v-1015.7c-.1-22.7-18.5-41.2-41.3-41.2z" fill="#fcd2bb"/><path d="m1469.1 1150.1c-9.8 7.6-18.8 16.5-25.5 27-8.4 13-13.1 28.1-16.4 43.2-7.6 35.1-7.9 72-20.5 105.6-2.8 7.5-6.2 14.8-10 21.9h102.5c22.7 0 41.2-18.4 41.2-41.2v-182.5c-.3 0-.5 0-.8 0-25.5-.4-50.3 10.3-70.5 26z" fill="#bc917a"/><path d="m1551.8 315h-24.8c-6.1 0-11.1 5-11.1 11.1v1040.5c0 6.1 5 11.1 11.1 11.1h24.8c6.1 0 11.1-5 11.1-11.1v-1040.5c0-6.1-5-11.1-11.1-11.1z" fill="#7f3246"/><path d="m1527 315c-6.1 0-11.1 5-11.1 11.1v1040.5c0 6.1 5 11.1 11.1 11.1h6.5v-1062.7z" fill="#512130"/><path d="m1492.3 219.2h-703.1c-22.7 0-41.2 18.4-41.2 41.2v1015.6c0 22.7 18.4 41.2 41.2 41.2h703.1c22.7 0 41.2-18.4 41.2-41.2v-1015.7c0-22.7-18.5-41.1-41.2-41.1z" fill="#ff7189"/><path d="m1492.3 211.6h-703.1c-22.7 0-41.2 18.4-41.2 41.2v1015.7c0 22.7 18.4 41.2 41.2 41.2h703.1c22.7 0 41.2-18.4 41.2-41.2v-1015.7c0-22.7-18.5-41.2-41.2-41.2z" fill="#ca4859"/><path d="m813.2 259.1h10v1018.2h-10z" fill="#99394e"/><path d="m855 259.1h10v1018.2h-10z" fill="#99394e"/><path d="m896.9 259.1h10v1018.2h-10z" fill="#99394e"/><path d="m938.8 259.1h10v1018.2h-10z" fill="#99394e"/><path d="m980.6 259.1h10v1018.2h-10z" fill="#99394e"/><path d="m1022.5 259.1h10v1018.2h-10z" fill="#99394e"/><path d="m1064.3 259.1h10v1018.2h-10z" fill="#99394e"/><path d="m1106.2 259.1h10v1018.2h-10z" fill="#99394e"/><path d="m1148.1 259.1h10v1018.2h-10z" fill="#99394e"/><path d="m1189.9 259.1h10v1018.2h-10z" fill="#99394e"/><path d="m1231.8 259.1h10v1018.2h-10z" fill="#99394e"/><path d="m1273.6 259.1h10v1018.2h-10z" fill="#99394e"/><path d="m1315.5 259.1h10v1018.2h-10z" fill="#99394e"/><path d="m1357.4 259.1h10v1018.2h-10z" fill="#99394e"/><path d="m1399.2 259.1h10v1018.2h-10z" fill="#99394e"/><path d="m1441.1 259.1h10v1018.2h-10z" fill="#99394e"/><path d="m1551.8 226.6h-24.8c-6.1 0-11.1 5-11.1 11.1v1068.5c0 6.1 5 11.1 11.1 11.1h24.8c6.1 0 11.1-5 11.1-11.1v-1068.5c0-6.2-5-11.1-11.1-11.1z" fill="#99394e"/><path d="m1527 226.6c-6.1 0-11.1 5-11.1 11.1v1068.5c0 6.1 5 11.1 11.1 11.1h6.5v-1090.7z" fill="#7f3246"/><path d="m1467.4 1277.4h-670.8c-10.3 0-18.7-8.4-18.7-18.7v-985.5c0-10.3 8.4-18.7 18.7-18.7h670.8c10.3 0 18.7 8.4 18.7 18.7v985.5c0 10.3-8.4 18.7-18.7 18.7zm-670.8-1015.6c-6.3 0-11.4 5.1-11.4 11.4v985.5c0 6.3 5.1 11.4 11.4 11.4h670.8c6.3 0 11.4-5.1 11.4-11.4v-985.5c0-6.3-5.1-11.4-11.4-11.4z" fill="#892f3e"/><path d="m1146.9 1010.6c-59.3 0-115.1-23.1-157.1-65.1s-65.1-97.7-65.1-157.1c0-59.3 23.1-115.1 65.1-157.1s97.7-65.1 157.1-65.1c59.3 0 115.1 23.1 157.1 65.1s65.1 97.7 65.1 157.1c0 59.3-23.1 115.1-65.1 157.1s-97.7 65.1-157.1 65.1z" fill="#ca4859"/><g fill="#7f3246"><path d="m979.2 757.9c9.2-6.9 18.4-13.6 27.5-20.6 3.6-2.8 6.6-5.7 2-10.7-2.8-3.1 2.4-12.4 6.7-12.2 1 0 2.4 1.6 2.8 2.7 1.4 4.1 2.5 8.2 3.4 12.4.2 1.3-.5 3.4-1.5 4.2-5 3.7-10 7.4-15.3 10.6-8.4 5.1-16.9 9.9-25.4 14.9-.2-.6-.2-.9-.2-1.3z"/><path d="m1132.8 909.4c-8.9 3.6-16.1 6.9-23.6 9.7-13 4.9-26.4 7.6-40.4 6.6-22-1.7-35.9-16.8-34.9-38.9.4-8.9 2.3-17.7 3.6-27.4-2.1 1.6-3.8 2.8-5.4 4-3.5 2.7-6.7 5.8-10.5 8-10.2 6-20 2.3-23.8-8.9-3.6-10.6-3.1-21.4.6-31.6 3.8-10.6 5.7-19.5-1.2-30.3-3.4-5.4-2.7-15.4-.3-22.1 4.6-12.8 11.7-24.7 17.9-37 .3-.6 1.1-.9 2.6-.9-.8 1.9-1.4 3.9-2.3 5.8-5.2 11.9-10.8 23.6-15.5 35.7-2.4 6-2.8 12.9 3.1 17.4 5.8 4.4 12.5 1.7 17-2 18.2-14.8 35.9-30.3 54.6-46.3-7.5-5.7-13.6-10.5-19.8-15.1-9.2-6.8-18.6-13.4-27.7-20.4-6.3-4.9-8.2-11.7-5.2-19 1.5-3.6 4.4-7.2 7.7-9.3 7.6-4.7 15.8-8.5 23.8-12.7 1.8-1 3.6-2 6.1-3.4-5.4-4.8-8.9-10-5.3-16.8 1.2-2.2 2.9-5 5-5.8 25.6-9.4 51.3-18.6 77.1-27.7.8-.3 1.8-.1 2.7-.2.2.5.5.9.7 1.4-2.1 1.2-4 2.7-6.2 3.5-22 8.4-44 16.7-66 25-.5.2-1.1.4-1.6.6-10.4 4.3-10.4 4.8-5.4 14.8 1.9 3.7 4 3.6 7.3 2.6 25.4-7.7 50.9-15.4 76.4-22.8 7.1-2.1 14.5-3.3 21.9-4.6 3.4-.6 6.9-.8 10.3-.5 9.7.9 15.5 9.2 12.3 18.3-1.7 4.9-4.3 10.1-7.8 13.8-13.1 13.9-26.8 27.2-40.7 40.3 3.5-10.6 9.7-19.3 17.8-26.6 6.5-5.9 13.5-11.3 20-17.2 6.7-6 5.8-11.7-2.9-13.9-6.1-1.6-13-1.7-19.2-.6-42.2 7.9-82.1 22.6-120.9 40.5-2.7 1.2-5 3.2-8.5 5.5 3.2 2.2 5.2 3.8 7.4 5.1 17.8 10.9 35.5 21.7 53.4 32.4 2 1.2 4.8 2.3 6.8 1.8 6.4-1.7 12.8-3.9 18.9-6.5 1.2-.5 1.9-4.2 1.6-6.2-2.2-13.4-5-26.7-6.9-40.1-.7-5.3.3-10.8.6-16.2.7-.1 1.3-.2 2-.3 4.5 7.8 8.9 15.6 13.4 23.5-.4.4-.8.7-1.2 1.1-1.8-.6-3.5-1.3-5.3-1.9-3.7 10.6 3.4 31 12.7 36.9 2.9 1.8 6.3 3.2 8.7 5.5 2.1 2.1 4.1 5.3 4.4 8.1.6 6.5-1.4 7.4-7.6 5.4-9.8-3.2-19.6-4-29.3-.4-.3.7-.6 1.5-1 2.2 20 14.2 40.1 28.5 61.5 43.7.4-4.2 1-6.5.9-8.7-.8-24.3-1.7-48.6-2.4-72.8-.2-6.2-.6-12.7 4.4-18.7 4.8 11.5 10.1 22.2 12.6 33.9-.5.3-1 .6-1.5.9-2-1.9-4.1-3.7-6.7-6.1-.2 1.8-.5 3.2-.4 4.5 1 21.4 2 42.8 3.3 64.2.8 12.4 10.4 19.9 22.9 18.4s15.8-5 14.8-17.5c-2.6-34.3-5.5-68.6-8.3-102.9-1.2-14.7-2.5-29.3-3.4-44-.3-4.8.6-9.7 2.2-14.8 7.2 9.8 12.2 20.3 15.2 31.7-.5.3-.9.7-1.4 1-2.3-2.5-4.6-5-8.1-8.7.9 10.3 1.7 19.2 2.4 28 2.6 33.9 5.2 67.9 7.5 101.8.4 5.7-.1 11.5-1 17.1-2.3 15.1-11.5 22.2-26.9 20.9-4.7-.4-9.4-1.6-14.8-2.5 2.8 27.8 5.2 55.3-2.8 82.3-.5 0-1 .1-1.5.1-.2-1.7-.5-3.3-.7-5-.1-1.7-.1-3.4-.2-5.2-.9-24.7-1.8-49.3-2.6-74-.1-4.4-1.6-7.3-5.2-10-17-12.7-33.7-25.8-50.6-38.7-1.9-1.5-4-2.9-7-3.6 1 2.1 2.2 4.1 3.1 6.2 2.5 5.8 5.9 11.3 7.2 17.4 3.7 16.4-3.1 28.6-18.6 34.8-4.2 1.7-8.8 2.5-13.1 4.2-8.7 3.4-17.6 6.5-25.8 11-19.3 10.6-26.4 35.8-16.2 55.6 5.1 10 14.3 14.5 24.7 15.6 8.8 1 18.1 1.2 26.7-.4 18.9-3.4 35.8-12 51.3-23.3 9.1-6.7 9.6-8.8 6.1-19.4-3.4-10.3-7.5-20.5-10.3-31-1.4-5.2-.9-11-1.3-16.5.7-.2 1.5-.4 2.2-.6 5.1 6.1 10.2 12.3 16.2 19.5-3.5 0-5.3 0-7.9 0 .4 2.1.6 4.1 1.1 6 1.4 4.6 3.1 9 4.5 13.6 4.6 14.9 1.9 27.9-10.1 38.6-8.8 7.8-13 17.7-12.6 29.6.2 5.2 1 10.1 5.9 12.9 5.3 3 9.9.4 13.7-2.8 6.6-5.7 13.6-11.4 19-18.2 12.8-16.2 28.5-28.1 47.8-35.3 2.7-1 5.2-2.5 7.9-3.4 4.9-1.7 6.6-5 6.8-10 .4-6.8.5-14 2.6-20.4 1.7-5.3 5.6-10.3 9.6-14.3 3.7-3.6 7.8-2.3 10.5 2.3 4.3 7.4 6.3 15.1 3.4 23.6-3.1 9-7.2 17.2-15.1 22.8 6.2 7.9 10.3 9.4 17.5 7 12.3-4.3 15.8-7.7 15.3-17.5-2-39.3-4.2-78.7-6.5-118-1.3-22.3-2.9-44.7-4.1-67-.3-5.5.9-11.1 1.4-16.6.9-.1 1.8-.2 2.7-.3 4.1 10 8.3 20 12.4 30-.6.4-1.2.8-1.8 1.2-2.1-1.9-4.2-3.8-7.3-6.7.8 12.6 1.7 24 2.4 35.5 2.7 42.2 8.2 84.2 6.2 126.6-.4 9.6-2.1 19.3-4.6 28.6-1.9 7.1-7.3 12.5-14 16-10.2 5.3-19.1 2.5-23.4-8.2-2.3-5.6-5.2-6.2-10.1-4.3-23 8.6-43.6 20.4-58.8 40.3-4.1 5.4-9 10.5-14.3 14.8-8.4 6.8-18.3 4.7-24-4.5-4.1-6.6-5.1-13.9-3.8-21.5.3-3.3.7-6.4 1.3-10.7zm-49.2-151.5c-2.7 2-5.2 3.5-7.3 5.4-12 10.6-23.9 21.4-36 31.9-8.9 7.7-17.1 16.5-29.3 19.4-1.3.3-2.8 1.6-3.4 2.8-6.3 11.9-9.7 24.5-7.8 38 .8 5.5 4.3 8.4 9.7 7.2 4.7-1 9.6-2.9 13.4-5.8 7.3-5.5 14.1-11.7 20.9-17.9 9.6-8.8 20.4-15.4 32.8-19.4 7.3-2.4 14.6-4.4 21.8-7 4.5-1.6 8.8-3.6 13-5.9 4.1-2.3 5-5.9 2.7-10.2-8-14.4-17.6-27.4-30.5-38.5zm155.9 102.1c.4 2.3.9 6.5 2.2 10.4.4 1.3 3.1 3.2 4.2 2.9 8.5-2.3 12.5-10.9 9.2-18.9-1.5-3.6-3.4-7.1-8.2-6.3-4.9.8-7.6 4.7-7.4 11.9z"/><path d="m1239.2 646.5c4.2 10 8.4 19.9 12.6 29.9-.4.2-.8.4-1.2.7-2.1-1.4-4.2-2.7-7.8-5 2 26.8 3.9 52.1 5.8 77.7 7.4-2.4 8.2-4.1 5.3-8.9-3.9-6.3-1.7-11 6.2-13.3 4.3 7.1 3.1 16.7-2.9 21.9-4.7 4.1-7 9.2-7.4 15.5-.7 10.1-2 20.1-3.2 30.1-.2 1.6-.9 3.2-2.8 4.8-.7-11.8-1.5-23.5-2.3-36.3-5.4 2.3-9.6 4.1-13.9 5.9-.2-.4-.4-.7-.7-1.1 3.3-2.4 6.4-4.8 9.8-7.1 3.5-2.4 4.7-5.3 4.4-9.7-2-31.1-3.7-62.2-5.4-93.3-.2-3.8.6-7.7 1-11.5.9 0 1.7-.2 2.5-.3z"/><path d="m1296.8 703.5c6.6 9.9 10.2 20.5 13.6 31.1-.7.6-1.4 1.1-2.1 1.7-1.4-2.6-2.8-5.2-4.3-7.7-.7.4-1.4.9-2.1 1.3.5 10 1.1 20 1.6 30 1.3 26.5 3.1 53 3.7 79.6.2 9-2.7 18-4.3 27-.2 1.2-1.1 2.2-1.8 3.6-2.4-7.7-6.7-162.4-4.3-166.6z"/><path d="m1249.5 812.8c11.2-8 12.7-8.3 16.6-3.1 3.3 4.4 2.4 6.4-5.1 12.4-3.3-2.3-6.8-4.6-10.5-7.2-3 2.9-6 5.7-9.4 8.8-2.8-3-5.3-5.7-8.1-8.6 2.7-3.4 5.1-6.5 7.8-9.9 3.1 2.7 6 5.2 8.7 7.6z"/><path d="m1095.9 847.5c2.2-2 4.4-4 6.6-6 8.9-7.8 17.9-15.5 26.8-23.3 3.7-3.2 4.8-6.6 2.6-11.6-1.2-2.7-.6-7.2.8-10 1.8-3.5 5.2-2.5 6.5 1.5 1.2 3.9 2.7 7.7 3.6 11.7.2 1.1-1.3 2.9-2.4 3.8-2.2 1.8-5.2 2.7-7.1 4.8-10.6 12-23.2 21.4-36.3 30.3-.4-.3-.8-.7-1.1-1.2z"/><path d="m1075.2 885.6c.1.3.3.6.3.7-1.9 2.7-3.9 5.5-5.8 8.2-1.9-3-5.1-5.9-5.4-9-.5-5.2.8-10.6 1.3-15.9.2-1.8.4-3.6.7-6.6-5 2.4-9 4.3-13 6.2-.3-.6-.7-1.2-1-1.8 10.3-9.5 23.1-15.2 35-22.2.5.6.9 1.2 1.4 1.7-2.9 2.5-5.5 5.5-8.8 7.3-8.9 4.9-12.3 12.9-12.5 22.3-.1 4 1.4 8 2.3 13 2.6-1.9 4-2.9 5.5-3.9z"/><path d="m1224.6 860.9c-9.5 3.2-19.1 6.5-28.6 9.7-.2-.4-.5-.7-.7-1.1 1.5-1.8 3-3.7 3.9-4.8-.8-3.6-3-8-1.7-9.6 3.5-4.5 8.2-8.1 12.9-11.5.8-.6 3.4 1.1 5.2 1.8-1.5 1.1-2.9 2.2-4.5 3.2-.6.3-1.7-.2-2.2.2-2.3 1.6-4.5 3.4-6.8 5.1 2.3 1.3 4.4 3.5 6.8 3.8 5 .6 10.1.2 15.1.2.1.9.3 1.9.6 3z"/><path d="m1240.5 924.7c-8.6-6.2-9.6-5.9-12.6 2.7-1.7 4.8-3.2 9.6-5.3 15.8-1.7-3.4-2.5-6-4.1-7.9-2.6-3.2-5.6-5.9-8.5-8.8-.9-.9-2.6-1.5-3-2.5-.8-2.4-.9-4.9-1.3-7.4 2.1.6 4.8.6 6.2 2 4.2 4.1 7.8 8.7 12.1 13.6.5-1.5 1-3 1.6-4.4 1.5-3.9 2.9-7.9 4.8-11.5 1-1.8 3.2-2.9 4.8-4.3 1.5 1.8 3.4 3.5 4.4 5.6.9 1.7.6 3.9.9 7.1z"/><path d="m1082.4 723.4c-1.3-2.2-2.2-4.8-3.9-6.7-2.8-3-6.4-5.3-9.3-8.3-1.6-1.6-2.9-3.8-3.8-5.9-.3-.8 1-3.2 1.4-3.2 1.9.2 4.2.5 5.6 1.7 3.5 3.1 6.6 6.7 10.7 10.9 1.5-6.2 2.4-11.2 4.1-15.9.8-2.2 4.1-5.8 4.7-5.5 3.5 1.6 4.4 4.8 2.7 8.9-1.8-.8-3.2-1.4-5.8-2.5-1.5 9-3 17.7-4.5 26.5-.7 0-1.3 0-1.9 0z"/><path d="m1110.5 871.9c-2.3 2.3-4.2 5.7-7 6.6-3.1 1-10.6-6.6-9.9-9.3.8-3.4 1.6-7.5 6.4-7.4 4 0 9.7 5.8 10.5 10.1z"/><path d="m1172.1 631.9c2.1-1.3 4.2-2.7 6.3-4-.1-.6-.3-1.2-.4-1.8-4.2.2-8.4.4-12.5.6 3.3-5.6 12.5-8.4 17.9-5.4 2.9 1.7 4 4.1 1 6.2-3.6 2.5-7.7 4.2-11.6 6.2-.3-.6-.5-1.2-.7-1.8z"/><path d="m1129.2 847.8c0 9-5.6 16.7 1.4 24 1.6-1.2 2.9-2.2 4.3-3.2-.3 4.3-1 9-6 8.8-4.6-.2-5.2-5-5.3-8.9-.3-7 1.1-13.5 5.6-20.7z"/><path d="m1198.5 759.6c-1.3 4.7-2.6 9.4-3.7 14.2s-.9 9 6.9 9.8c-1.8 2-3.6 4.1-5.4 6.1-1.6-1.8-4.3-3.5-4.5-5.5-.5-4.3-.1-8.9.8-13.1 1-4.2 3.1-8 4.7-12 .4.1.8.3 1.2.5z"/><path d="m1037.5 742.8c-1 5.6-2.5 11.1-3 16.8-.5 5.4 1.1 6.1 6.4 4.5.4.4.9.7 1.3 1.1-2 2.2-4 4.4-6 6.6-2-3-5.8-6.2-5.5-8.9.8-7 3.4-13.8 5.3-20.7.6.2 1 .4 1.5.6z"/><path d="m1320 765.1c-.4 8.9-8.5 17-1.9 26.8 1.5-.9 2.7-1.6 4.7-2.8-1.2 3.1-1.9 5.3-3 7.2-.7 1.2-2.5 2.9-3.2 2.6-1.3-.5-3-2.1-3.1-3.4-1.3-10.8.7-21 6.5-30.4z"/><path d="m1234.4 828.5c-5.6 3.1-9.9 5.6-14.3 8-.3-.5-.7-1-1-1.5 1.5-1 3-2 4.6-3.1-.2-.5-.3-1-.5-1.5-3.3-.3-6.6-.6-10.1-.9 3.8-5.3 12.2-6 21.3-1z"/><path d="m1156.3 748c-1.4 4.7-3.2 9.3-4 14.2-.6 3.5-.5 8.1 5.8 5.2-.1 1.1 0 1.9-.3 2.2-1.9 1.8-3.9 3.5-5.9 5.3-1.1-2.5-3.3-4.9-3.3-7.4.3-7.4 2.6-14.1 7.7-19.5z"/><path d="m1147.7 663c-2.5 6.7-5.1 13.3-8.1 21.3 3.7-.6 5.2-.8 7.7-1.2-1.5 2.6-2.4 4.9-4 6.5-.6.6-3.1.2-4.1-.5-1.1-.8-1.9-2.6-1.9-4 .3-8.8 4.5-15.9 10.4-22.1z"/><path d="m1192.1 686.9c.9 5.9-5.4 13.4 5.4 17.7-2.4 2.5-4.2 4.4-6 6.2-1.4-2.2-4.1-4.6-4-6.7.3-5.9 1.9-11.7 2.9-17.5.7.1 1.2.2 1.7.3z"/><path d="m988.6 811.8c-2.3-.8-3.7-1.3-5.3-1.9.9-3.8 2.7-6.6 6.4-5.3 1.2.5 2.2 5.2 1.3 7.1-2.5 5.8-6 11.1-9.1 16.6-.5-.3-1-.5-1.5-.8 2.7-5.1 5.3-10.1 8.2-15.7z"/><path d="m1230 703.7c-2 1.5-3.9 3.1-5.9 4.6-1.3-2.3-3.7-4.6-3.7-6.9.2-4.8 1.6-9.5 3.8-14.1v15.1h4.7c.4.5.7.9 1.1 1.3z"/><path d="m1020 900.9c-2.2-5.8 7-11.3-2.7-16.5 1.3-1.2 2.4-2.8 4-3.5 1.2-.6 3.2-.6 4.2.1.9.6 1.5 2.8 1.1 3.9-2.1 5.3-4.5 10.6-6.6 16z"/><path d="m1027.9 661.2c.6 6.1-7.5 12.7 1.7 19.9-1 1.1-2.5 2.7-4.2 4.5-5-6.8-3.3-18.1 2.5-24.4z"/><path d="m1185.1 934.7c1-1.6 1.4-3 2.4-3.9.9-.8 2.6-1.9 3.2-1.6 1.1.6 2.2 2.2 2.2 3.5.4 6.3-2.6 11.1-8 16.2 2.2-4.9 3.8-8.6 5.5-12.6-2.2-.7-3.6-1.1-5.3-1.6z"/><path d="m995 720.4c.5 2.1 1 4.2 1.7 6.7 1.3-.3 2.6-.7 4-1 .3.4.6.7.9 1.1-2.2 2-4.5 4.1-6.7 6.1-.5-.2-.9-.5-1.4-.7 0-4 0-8.1 0-12.1.5 0 1 0 1.5-.1z"/><path d="m1088.2 806.2c-3.9-2.9-7.6-5.6-11.7-8.7-2.9 3.1-5.7 6.2-8.8 9.5-3.9-2.9-7.7-5.7-11.4-8.4 3.2-10.9 5.7-11.3 19.1-3.6 3-2.7 5.7-6.1 9.2-7.6 1.4-.6 4.8 2.5 6.9 4.4 4.2 3.7 3.5 6.7-3.3 14.4z"/><path d="m1034 809.3c-.5 7-8.5 13.7-.3 21.1 1.1-.7 2.4-1.5 3.9-2.4-.5 4.4-2.1 8.8-6.3 8.4-4.8-.5-3.9-5.6-3.4-8.9.9-6.4 2.7-12.7 4.1-19 .7.3 1.3.6 2 .8z"/></g><path d="m1146.9 1006.8c-59.3 0-115.1-23.1-157.1-65.1s-65.1-97.7-65.1-157.1c0-59.3 23.1-115.1 65.1-157.1s97.7-65.1 157.1-65.1c59.3 0 115.1 23.1 157.1 65.1s65.1 97.7 65.1 157.1c0 59.3-23.1 115.1-65.1 157.1s-97.7 65.1-157.1 65.1zm0-436.5c-57.3 0-111.1 22.3-151.6 62.8s-62.8 94.3-62.8 151.6 22.3 111.1 62.8 151.6 94.3 62.8 151.6 62.8 111.1-22.3 151.6-62.8 62.8-94.3 62.8-151.6-22.3-111.1-62.8-151.6-94.3-62.8-151.6-62.8z" fill="#ff6c85"/><path d="m1146.9 1010.6c-59.3 0-115.1-23.1-157.1-65.1s-65.1-97.7-65.1-157.1c0-59.3 23.1-115.1 65.1-157.1s97.7-65.1 157.1-65.1c59.3 0 115.1 23.1 157.1 65.1s65.1 97.7 65.1 157.1c0 59.3-23.1 115.1-65.1 157.1s-97.7 65.1-157.1 65.1zm0-436.5c-57.3 0-111.1 22.3-151.6 62.8s-62.8 94.3-62.8 151.6 22.3 111.1 62.8 151.6 94.3 62.8 151.6 62.8 111.1-22.3 151.6-62.8 62.8-94.3 62.8-151.6-22.3-111.1-62.8-151.6-94.3-62.8-151.6-62.8z" fill="#7f3246"/><path d="m1350.7 787.6c-3.9 8.4-6.6 17.4-6.9 26.6-1.2 33.4 27.4 59.3 42.8 89 22.1 43 16.2 94.3 23.2 142.1 3.3 22.7 10.4 46.2 27.2 61.9 5.7 5.3 12.5 9.8 15.6 17 1.8 4.1 2.1 8.6 2.5 13.1 5 47.8 31.9 92.8 71.6 119.8 2 1.3 4.1 2.7 6.5 2.7 5.3 0 8.1-6.2 9.4-11.4 8.8-37 4.7-76-4-113-8.8-37-22.2-72.8-32.3-109.5-9-32.8-15.5-66.4-27.4-98.2-10.9-29.2-26.3-56.6-42-83.6-12.9-22.3-26.2-44.5-41-65.6-6.7-9.5-12.9-25.1-24.6-19.9-8.5 3.9-16.8 20.9-20.6 29z" fill="#440235" stroke="#b26029" stroke-miterlimit="10"/><path d="m1399.2 1403.7s81.4-174.3 257.6-194.4c0 0 3.8 121.2-28.7 153.7-32.5 32.6-209 40.4-228.9 40.7z" fill="#997361"/><path d="m1500 1327.2c-19 25.1-34.6 54.5-35.6 86 36.7-27.8 76.7-51.3 118.9-69.7 7.2-3.1 15.1-6.9 17.8-14.2 1.3-3.6 1.1-7.6.4-11.3-1.3-7.6-4.3-14.7-7.3-21.8-3.2-7.7-8.6-31-16-35.3-8.9-5.2-21.2 8.7-27.8 14-18.8 15.3-35.6 32.9-50.4 52.3z" fill="#440235"/><path d="m1481.9 1051.1c-25.5 34.4-22.9 83.7-3.5 121.8 11.7 22.9 28.7 43.1 38 67 9.6 24.8 10.5 52.7 22.3 76.6 12.2-10.7 24.7-18.5 36.9-29.2 1.8-1.6 3.6-3.2 4.6-5.3 1.3-2.6 1.2-5.6 1.1-8.5-1.2-35-2.5-70.3-11.5-104.2-9-33.8-26.4-66.6-54.5-87.5-13.3-9.9-18.6-23.3-33.4-30.7z" fill="#b26029"/><path d="m1562.9 973.7c-4.1-23.5-50.8-116.7-72.2-160.3-16-32.5-74.9-36.1-86.5-65.4s-35.2-14.7-35.2-14.7c-48.2 39.1 40.2 157.3 40.2 157.3s8.3 86.1 17.6 145 97.8 88.5 97.8 88.5l14.7 66.7 1 126.4 119.7-52s-40.6-117.2-34.1-141.1 21.4-140.7 19.7-196.5c-2.1-67-26.7-67-28.6-109.9-2.1-47.2-16.3-177.2-54.2-221.4v377.4z" fill="#ef7c2e"/><path d="m1569.6 1019.9c7.7-29.1 15.2-58.8 14.6-88.9-.4-23.7-5.8-47-8.4-70.6-5.2-47 .7-94.6-2.2-141.8-.9-14.9-2.9-30.2-10.2-43.2-.1-.3-.3-.5-.5-.8v299.1c-3-16.7-27.5-68.9-49.1-113.4 8 20.2 16.4 40.4 25 60.4 13.6 32 28.3 64.5 30.8 99.2z" fill="#b26029"/><path d="m1380.2 742.8c-5.2 6.5-4.4 15.9-1.6 23.7 3.2 8.8 8.5 16.7 15.4 22.9.8.8 1.8 1.5 2.9 1.7 1 .1 2-.3 3-.7 11.8-5.3 23.6-10.6 35.5-15.9-14.1-7-26.5-14.7-31.2-26.5-2.2-5.6-4.8-9.5-7.6-12.3-6.4.4-12.5 2.3-16.4 7.1z" fill="#ffb07b"/><path d="m1480.1 800.7c-5-2.7-12.3.3-17.4 1.8-5.6 1.7-11.3 3.9-16.4 6.8-10.4 5.9-18.9 14.1-25.8 23.8-1.2 1.7 1.4 3.6 2.9 2.2 8.3-8 18.3-14.3 28.9-18.9 5.2-2.2 10.5-4.1 16-5.3 4.9-1.1 11.8-1.1 13.2-7 .3-1.3-.2-2.8-1.4-3.4z" fill="#b26029"/><path d="m1473.5 818.9c-4.7-.2-8.3 1.5-12.3 3.8-4.3 2.4-7.5 6-11.5 8.6-1.9 1.2-.2 4.1 1.8 3 7.6-4.6 17.2-4.3 24.3-10 2.1-1.9.1-5.3-2.3-5.4z" fill="#b26029"/><path d="m1574.9 1006.2c-.6-4.4-1.1-8.8-1.7-13.2-1.3-9.1-2.6-18.2-4.1-27.3-3-18.6-5.5-37.3-7.6-56-.3-3.1-5.2-3.2-5 0 1.2 18.7 2.4 37.5 3.6 56.2 0 .4.1.8.1 1.1-.5.4-.9.9-1.2 1.7-3.7 10.1-7.4 20.3-10.8 30.5-1.9 5.6 7.2 8.1 8.9 2.4 1.6-5.5 3.1-11.1 4.6-16.7.3 2.8.5 5.7.8 8.5.5 4.6 1.1 9.2 1.7 13.8.6 4.4.4 9.3 2.9 13.1 2.2 3.3 7.1 2.7 8.3-1.1 1.3-4.2 0-8.7-.5-13z" fill="#b26029"/><path d="m1582.8 702.9c-6.8-.3-13.4 6.3-17.7 11-1.4 1.6.5 4.5 2.4 3.1 2.7-2 5.5-3.8 8.6-5.2 3-1.4 6-2.2 8.5-4.5 1.7-1.6.3-4.3-1.8-4.4z" fill="#b26029"/><path d="m1581.6 718.4c-1.4.6-2.9 1-4.3 1.5s-3 1-4.5 1.1c-2 .2-2.5 2.9-.5 3.6 2.1.8 4.2 1.1 6.5.7s4-1.7 5.6-3.3c2-1.9-.5-4.6-2.8-3.6z" fill="#b26029"/><path d="m1656.8 1209.3c-41.1 41.3-148.3 142.6-257.6 194.4l116.7 468.3h408l-240.7-656.9c-4-11-18.1-14.1-26.4-5.8z" fill="#fcd2bb"/><path d="m968.5 787.6c3.9 8.4 6.6 17.4 6.9 26.6 1.2 33.4-27.4 59.3-42.8 89-22.1 43-16.2 94.3-23.2 142.1-3.3 22.7-10.4 46.2-27.2 61.9-5.7 5.3-12.5 9.8-15.6 17-1.8 4.1-2.1 8.6-2.5 13.1-5 47.8-31.9 92.8-71.6 119.8-2 1.3-4.1 2.7-6.5 2.7-5.3 0-8.1-6.2-9.4-11.4-8.8-37-4.7-76 4-113s22.2-72.8 32.3-109.5c9-32.8 15.5-66.4 27.4-98.2 10.9-29.2 26.3-56.6 42-83.6 12.9-22.3 26.2-44.5 41-65.6 6.7-9.5 12.9-25.1 24.6-19.9 8.6 3.9 16.8 20.9 20.6 29z" fill="#440235" stroke="#b26029" stroke-miterlimit="10"/><path d="m920 1403.7s-81.4-174.3-257.6-194.4c0 0-3.8 121.2 28.7 153.7 32.6 32.6 209 40.4 228.9 40.7z" fill="#997361"/><path d="m819.2 1327.2c19 25.1 34.6 54.5 35.6 86-36.7-27.8-76.7-51.3-118.9-69.7-7.2-3.1-15.1-6.9-17.8-14.2-1.3-3.6-1.1-7.6-.4-11.3 1.3-7.6 4.3-14.7 7.3-21.8 3.2-7.7 8.6-31 16-35.3 8.9-5.2 21.2 8.7 27.8 14 18.8 15.3 35.6 32.9 50.4 52.3z" fill="#440235"/><path d="m837.3 1051.1c25.5 34.4 22.9 83.7 3.5 121.8-11.7 22.9-28.7 43.1-38 67-9.6 24.8-10.5 52.7-22.3 76.6-12.2-10.7-24.7-18.5-36.9-29.2-1.8-1.6-3.6-3.2-4.6-5.3-1.3-2.6-1.2-5.6-1.1-8.5 1.2-35 2.5-70.3 11.5-104.2 9-33.8 26.4-66.6 54.5-87.5 13.4-9.9 18.6-23.3 33.4-30.7z" fill="#b26029"/><path d="m756.4 973.7c4.1-23.5 50.8-116.7 72.2-160.3 16-32.5 74.9-36.1 86.5-65.4s35.2-14.7 35.2-14.7c48.2 39.1-40.2 157.3-40.2 157.3s-8.3 86.1-17.6 145-97.8 88.5-97.8 88.5l-14.7 66.7-1 126.4-119.7-52s40.6-117.2 34.1-141.1-21.4-140.7-19.7-196.5c2.1-67 26.7-67 28.6-109.9 2.1-47.2 16.3-177.2 54.2-221.4v377.4z" fill="#ef7c2e"/><path d="m749.7 1019.9c-7.7-29.1-15.2-58.8-14.6-88.9.4-23.7 5.8-47 8.4-70.6 5.2-47-.7-94.6 2.2-141.8.9-14.9 2.9-30.2 10.2-43.2.1-.3.3-.5.5-.8v299.1c3-16.7 27.5-68.9 49.1-113.4-8 20.2-16.4 40.4-25 60.4-13.7 32-28.4 64.5-30.8 99.2z" fill="#b26029"/><path d="m939 742.8c5.2 6.5 4.4 15.9 1.6 23.7-3.2 8.8-8.5 16.7-15.4 22.9-.8.8-1.8 1.5-2.9 1.7-1 .1-2-.3-3-.7-11.8-5.3-23.6-10.6-35.5-15.9 14.1-7 26.5-14.7 31.2-26.5 2.2-5.6 4.8-9.5 7.6-12.3 6.4.4 12.6 2.3 16.4 7.1z" fill="#ffb07b"/><path d="m839.1 800.7c5-2.7 12.3.3 17.4 1.8 5.6 1.7 11.3 3.9 16.4 6.8 10.4 5.9 18.9 14.1 25.8 23.8 1.2 1.7-1.4 3.6-2.9 2.2-8.3-8-18.3-14.3-28.9-18.9-5.2-2.2-10.5-4.1-16-5.3-4.9-1.1-11.8-1.1-13.2-7-.3-1.3.2-2.8 1.4-3.4z" fill="#b26029"/><path d="m845.7 818.9c4.7-.2 8.3 1.5 12.3 3.8 4.3 2.4 7.5 6 11.5 8.6 1.9 1.2.2 4.1-1.8 3-7.6-4.6-17.2-4.3-24.3-10-2.1-1.9-.1-5.3 2.3-5.4z" fill="#b26029"/><path d="m744.4 1006.2c.6-4.4 1.1-8.8 1.7-13.2 1.3-9.1 2.6-18.2 4.1-27.3 3-18.6 5.5-37.3 7.6-56 .3-3.1 5.2-3.2 5 0-1.2 18.7-2.4 37.5-3.6 56.2 0 .4-.1.8-.1 1.1.5.4.9.9 1.2 1.7 3.7 10.1 7.4 20.3 10.8 30.5 1.9 5.6-7.2 8.1-8.9 2.4-1.6-5.5-3.1-11.1-4.6-16.7-.3 2.8-.5 5.7-.8 8.5-.5 4.6-1.1 9.2-1.7 13.8-.6 4.4-.4 9.3-2.9 13.1-2.2 3.3-7.1 2.7-8.3-1.1-1.4-4.2-.1-8.7.5-13z" fill="#b26029"/><path d="m736.4 702.9c6.8-.3 13.4 6.3 17.7 11 1.4 1.6-.5 4.5-2.4 3.1-2.7-2-5.5-3.8-8.6-5.2-3-1.4-6-2.2-8.5-4.5-1.7-1.6-.3-4.3 1.8-4.4z" fill="#b26029"/><path d="m737.6 718.4c1.4.6 2.9 1 4.3 1.5s3 1 4.5 1.1c2 .2 2.5 2.9.5 3.6-2.1.8-4.2 1.1-6.5.7s-4-1.7-5.6-3.3c-2-1.9.5-4.6 2.8-3.6z" fill="#b26029"/><path d="m662.4 1209.3c41.1 41.3 148.3 142.6 257.6 194.4l-116.7 468.3h-408l240.7-656.9c4-11 18.2-14.1 26.4-5.8z" fill="#fcd2bb"/><path d="m1705.8 450.3v-.2c-7.9-1.7-15.8-1.4-23.9-1.4h-9c-.1-5.2-.2-10.5-.5-15.7-.4-8.7-2.2-17.3-2.8-25.9-.5-7.4-11.1-7.4-11.5 0-.5 8.7-2.4 17.2-2.8 25.9-.3 5.2-.4 10.5-.5 15.7-6 0-12.1 0-18.1.2-8.1.3-15.3.5-22.6 4.3-3.9 2-3.9 8.2 0 10.2 7.3 3.8 14.6 4 22.6 4.3 5.9.2 11.8.2 17.8.2-.1 5.7-.1 11.4-.2 17.1-.1 8.8-1.5 18.1 2.3 26.2 2.6 5.5 12 5.5 14.6 0 3.8-8.2 2.4-17.4 2.3-26.2-.1-5.7-.1-11.4-.2-17.1h8.6c8 0 15.9.3 23.9-1.4 9-2 7.2-13.9 0-16.2z" fill="#fcd96a"/><path d="m653.1 471.8v-.2c-7.9-1.7-15.8-1.4-23.9-1.4h-9c-.1-5.2-.2-10.5-.5-15.7-.4-8.7-2.2-17.3-2.8-25.9-.5-7.4-11.1-7.4-11.5 0-.5 8.7-2.4 17.2-2.8 25.9-.3 5.2-.4 10.5-.5 15.7-6 0-12.1 0-18.1.2-8.1.3-15.3.5-22.6 4.3-3.9 2-3.9 8.2 0 10.2 7.3 3.8 14.6 4 22.6 4.3 5.9.2 11.8.2 17.8.2-.1 5.7-.1 11.4-.2 17.1-.1 8.8-1.5 18.1 2.3 26.2 2.6 5.5 12 5.5 14.6 0 3.8-8.2 2.4-17.4 2.3-26.2-.1-5.7-.1-11.4-.2-17.1h8.6c8 0 15.9.3 23.9-1.4 8.9-2 7.1-13.9 0-16.2z" fill="#fcd96a"/><path d="m574.2 818.6v-.2c-7.9-1.7-15.8-1.4-23.9-1.4h-9c-.1-5.2-.2-10.5-.5-15.7-.4-8.7-2.2-17.3-2.8-25.9-.5-7.4-11.1-7.4-11.5 0-.5 8.7-2.4 17.2-2.8 25.9-.3 5.2-.4 10.5-.5 15.7-6 0-12.1 0-18.1.2-8.1.3-15.3.5-22.6 4.3-3.9 2-3.9 8.2 0 10.2 7.3 3.8 14.6 4 22.6 4.3 5.9.2 11.8.2 17.8.2-.1 5.7-.1 11.4-.2 17.1-.1 8.8-1.5 18.1 2.3 26.2 2.6 5.5 12 5.5 14.6 0 3.8-8.2 2.4-17.4 2.3-26.2-.1-5.7-.1-11.4-.2-17.1h8.6c8 0 15.9.3 23.9-1.4 9-2 7.2-13.9 0-16.2z" fill="#fcd96a"/><path d="m1803.5 882.6v-.2c-7.9-1.7-15.8-1.4-23.9-1.4h-9c-.1-5.2-.2-10.5-.5-15.7-.4-8.7-2.2-17.3-2.8-25.9-.5-7.4-11.1-7.4-11.5 0-.5 8.7-2.4 17.2-2.8 25.9-.3 5.2-.4 10.5-.5 15.7-6 0-12.1 0-18.1.2-8.1.3-15.3.5-22.6 4.3-3.9 2-3.9 8.2 0 10.2 7.3 3.8 14.6 4 22.6 4.3 5.9.2 11.8.2 17.8.2-.1 5.7-.1 11.4-.2 17.1-.1 8.8-1.5 18.1 2.3 26.2 2.6 5.5 12 5.5 14.6 0 3.8-8.2 2.4-17.4 2.3-26.2-.1-5.7-.1-11.4-.2-17.1h8.6c8 0 15.9.3 23.9-1.4 9-2.1 7.2-14 0-16.2z" fill="#fcd96a"/><path d="m917.8 307v-.2c-7.9-1.7-15.8-1.4-23.9-1.4h-9c-.1-5.2-.2-10.5-.5-15.7-.4-8.7-2.2-17.3-2.8-25.9-.5-7.4-11.1-7.4-11.5 0-.5 8.7-2.4 17.2-2.8 25.9-.3 5.2-.4 10.5-.5 15.7-6 0-12.1 0-18.1.2-8.1.3-15.3.5-22.6 4.3-3.9 2-3.9 8.2 0 10.2 7.3 3.8 14.6 4 22.6 4.3 5.9.2 11.8.2 17.8.2-.1 5.7-.1 11.4-.2 17.1-.1 8.8-1.5 18.1 2.3 26.2 2.6 5.5 12 5.5 14.6 0 3.8-8.2 2.4-17.4 2.3-26.2-.1-5.7-.1-11.4-.2-17.1h8.6c8 0 15.9.3 23.9-1.4 9-2.1 7.2-14 0-16.2z" fill="#fff"/><path d="m1413.3 1196.5v-.2c-7.9-1.7-15.8-1.4-23.9-1.4h-9c-.1-5.2-.2-10.5-.5-15.7-.4-8.7-2.2-17.3-2.8-25.9-.5-7.4-11.1-7.4-11.5 0-.5 8.7-2.4 17.2-2.8 25.9-.3 5.2-.4 10.5-.5 15.7-6 0-12.1 0-18.1.2-8.1.3-15.3.5-22.6 4.3-3.9 2-3.9 8.2 0 10.2 7.3 3.8 14.6 4 22.6 4.3 5.9.2 11.8.2 17.8.2-.1 5.7-.1 11.4-.2 17.1-.1 8.8-1.5 18.1 2.3 26.2 2.6 5.5 12 5.5 14.6 0 3.8-8.2 2.4-17.4 2.3-26.2-.1-5.7-.1-11.4-.2-17.1h8.6c8 0 15.9.3 23.9-1.4 9-2 7.2-13.9 0-16.2z" fill="#fff"/></svg>